<svg xmlns="http://www.w3.org/2000/svg" viewBox="0 0 128 128">
  <path fill="currentcolor"
    d="M 45.443 67.845 L 77.583 35.704 L 85.154 43.275 L 53.014 75.416 C 50.428 78.002 51.606 82.409 55.142 83.358 C 56.778 83.794 58.528 83.33 59.727 82.129 L 91.869 49.989 C 99.868 41.825 96.025 28.062 84.955 25.211 C 79.927 23.918 74.576 25.348 70.87 28.99 L 38.729 61.131 C 25.143 74.709 31.357 97.9 49.907 102.872 C 58.52 105.178 67.705 102.714 74.013 96.415 L 91.869 78.558 L 99.44 86.129 L 81.583 103.986 C 61.82 123.042 28.837 113.556 22.215 86.915 C 19.259 75.001 22.63 62.395 31.158 53.56 L 63.299 21.419 C 77.269 7.57 100.996 14.048 105.996 33.075 C 108.296 41.825 105.803 51.132 99.44 57.56 L 67.298 89.701 C 58.599 97.829 44.364 93.486 41.678 81.894 C 40.514 76.873 41.922 71.609 45.443 67.845"
  ></path>
</svg>