<svg xmlns="http://www.w3.org/2000/svg" width="128" height="128" viewBox="0 0 128 128">
  <path fill="currentcolor"
    d="M 63.999 23.997 C 65.652 23.997 67.133 25.017 67.73 26.557 L 76.823 50.203 L 100.303 52.005 C 103.376 52.245 105.033 55.716 103.296 58.256 C 103.087 58.559 102.836 58.831 102.553 59.065 L 84.528 74.093 L 91.195 98.953 C 91.989 101.93 89.27 104.65 86.295 103.854 C 85.862 103.738 85.446 103.546 85.073 103.29 L 63.999 88.838 L 42.933 103.29 C 40.4 105.04 36.923 103.391 36.673 100.32 C 36.64 99.861 36.683 99.397 36.8 98.953 L 43.473 74.093 L 25.442 59.065 C 23.074 57.097 23.731 53.3 26.62 52.239 C 26.967 52.111 27.325 52.031 27.692 52.005 L 51.172 50.203 L 60.265 26.557 C 60.862 25.017 62.343 23.997 63.999 23.997 M 63.999 39.142 L 56.825 57.78 L 38.128 59.22 L 52.527 71.219 L 47.339 90.561 L 63.999 79.144 L 80.657 90.565 L 75.468 71.224 L 89.868 59.225 L 71.17 57.785 L 63.999 39.142 Z"
  ></path>
</svg>