<svg xmlns="http://www.w3.org/2000/svg" width="128" height="128" viewBox="0 0 128 128">
  <path fill="currentcolor"
    d="M 10 37 C 10 29.542 16.048 23.5 23.5 23.5 L 43.749 23.5 C 51.208 23.5 57.249 29.542 57.249 37 L 57.249 77.5 C 57.249 92.41 45.16 104.5 30.249 104.5 L 30.249 94.375 C 39.571 94.375 47.125 86.821 47.125 77.5 L 47.125 70.749 L 23.5 70.749 C 16.048 70.749 10 64.701 10 57.249 L 10 37 Z M 47.125 60.625 L 47.125 37 C 47.125 35.137 45.613 33.625 43.749 33.625 L 23.5 33.625 C 21.637 33.625 20.125 35.137 20.125 37 L 20.125 57.249 C 20.125 59.113 21.637 60.625 23.5 60.625 L 47.125 60.625 Z M 70.749 37 C 70.749 29.542 76.797 23.5 84.249 23.5 L 104.5 23.5 C 111.958 23.5 118 29.542 118 37 L 118 77.5 C 118 92.41 105.91 104.5 91 104.5 L 91 94.375 C 100.321 94.375 107.875 86.821 107.875 77.5 L 107.875 70.749 L 84.249 70.749 C 76.797 70.749 70.749 64.701 70.749 57.249 L 70.749 37 Z M 107.875 60.625 L 107.875 37 C 107.875 35.137 106.363 33.625 104.5 33.625 L 84.249 33.625 C 82.387 33.625 80.875 35.137 80.875 37 L 80.875 57.249 C 80.875 59.113 82.387 60.625 84.249 60.625 L 107.875 60.625 Z"
  ></path>
</svg>