<svg xmlns="http://www.w3.org/2000/svg" viewBox="0 0 128 128">
  <path fill="currentcolor" fill-rule="evenodd"
    d="M 64 23.451 C 32.72 23.451 13.18 57.301 28.82 84.391 C 36.07 96.961 49.49 104.701 64 104.701 C 95.28 104.701 114.82 70.851 99.18 43.771 C 91.93 31.201 78.51 23.451 64 23.451 M 14 64.081 C 14 25.581 55.67 1.531 89 20.771 C 104.47 29.701 114 46.221 114 64.081 C 114 102.571 72.33 126.621 39 107.381 C 23.53 98.451 14 81.941 14 64.081 M 64 45.331 C 60.34 45.331 57.75 47.921 57.75 51.581 L 48.37 51.581 C 48.37 42.741 55.16 35.951 64 35.951 C 72.84 35.951 79.62 42.741 79.62 51.581 C 79.62 58.661 75.17 62.241 72.36 64.441 C 69.17 66.951 68.69 67.531 68.69 68.771 L 68.69 73.451 L 59.31 73.451 L 59.31 68.771 C 59.31 62.661 63.62 59.351 66.05 57.481 L 66.57 57.071 C 69.24 54.981 70.25 53.871 70.25 51.581 C 70.25 47.921 67.66 45.331 64 45.331"
    clip-rule="evenodd" style="stroke-width: 1; transform-origin: 14px 13.999px;"></path>
  <path fill="currentcolor"
    d="M 70.25 85.951 C 70.25 90.761 65.04 93.771 60.87 91.371 C 58.94 90.251 57.75 88.191 57.75 85.951 C 57.75 81.141 62.96 78.131 67.12 80.541 C 69.06 81.651 70.25 83.721 70.25 85.951"
    style="stroke-width: 1; transform-origin: 14px 13.999px;"></path>
</svg>