<svg xmlns="http://www.w3.org/2000/svg" width="128" height="128" viewBox="0 0 128 128">
  <path fill="currentcolor" d="M 14 31.966 C 14 22.904 21.344 15.56 30.406 15.56 L 97.594 15.56 C 106.656 15.56 114 22.904 114 31.966 L 114 83.529 C 114 92.591 106.656 99.935 97.594 99.935 L 41.806 99.935 L 21.012 111.816 C 17.887 113.598 14 111.348 14 107.748 L 14 31.966 Z M 30.406 24.935 C 26.525 24.935 23.375 28.085 23.375 31.966 L 23.375 99.673 L 39.312 90.56 L 97.594 90.56 C 101.475 90.56 104.625 87.41 104.625 83.529 L 104.625 31.966 C 104.625 28.085 101.475 24.935 97.594 24.935 L 30.406 24.935 Z M 89 53.06 L 39 53.06 L 39 43.685 L 89 43.685 L 89 53.06 Z M 70.25 71.81 L 39 71.81 L 39 62.435 L 70.25 62.435 L 70.25 71.81 Z"></path>
</svg>