<svg xmlns="http://www.w3.org/2000/svg" width="128" height="128" viewBox="0 0 128 128">
  <path fill="currentColor"
    d="M 14 28.289 C 14 20.4 20.395 14 28.289 14 L 99.711 14 C 107.6 14 114 20.4 114 28.289 L 114 99.711 C 114 107.605 107.6 114 99.711 114 L 28.289 114 C 20.395 114 14 107.605 14 99.711 L 14 28.289 Z M 28.289 24.711 C 26.311 24.711 24.711 26.311 24.711 28.289 L 24.711 99.711 C 24.711 101.695 26.311 103.289 28.289 103.289 L 99.711 103.289 C 101.689 103.289 103.289 101.695 103.289 99.711 L 103.289 28.289 C 103.289 26.311 101.689 24.711 99.711 24.711 L 28.289 24.711 Z M 92.566 49.711 L 35.434 49.711 L 35.434 39 L 92.566 39 L 92.566 49.711 Z M 78.289 74.711 L 35.434 74.711 L 35.434 64 L 78.289 64 L 78.289 74.711 Z"
  ></path>
</svg>