<svg xmlns="http://www.w3.org/2000/svg" viewBox="0 0 128 128">
  <path fill="currentcolor" fill-rule="evenodd"
    d="M 64 23.377 C 32.725 23.371 13.175 57.227 28.806 84.308 C 31.219 88.489 34.356 92.202 38.075 95.283 C 40.156 87.871 46.925 82.746 54.625 82.752 L 73.375 82.752 C 81.25 82.752 87.894 88.052 89.925 95.283 C 114.006 75.327 107.45 36.789 78.131 25.914 C 73.606 24.233 68.825 23.377 64 23.377 M 81.187 100.827 L 81.187 99.939 C 81.187 95.627 77.687 92.127 73.375 92.127 L 54.625 92.127 C 50.312 92.127 46.812 95.627 46.812 99.939 L 46.812 100.827 L 47.187 100.996 C 52.312 103.327 58 104.627 64 104.627 C 70 104.627 75.687 103.327 80.812 101.002 C 80.937 100.933 81.062 100.877 81.187 100.827 M 14 64.002 C 14 25.508 55.662 1.452 89 20.702 C 104.469 29.633 114 46.139 114 64.002 C 114 102.489 72.331 126.546 39 107.302 C 23.525 98.371 14 81.864 14 64.002 M 64 42.127 C 54.375 42.127 48.362 52.539 53.175 60.877 C 55.406 64.746 59.531 67.127 64 67.127 C 73.619 67.127 79.637 56.708 74.825 48.377 C 72.587 44.508 68.462 42.127 64 42.127 M 42.125 54.627 C 42.125 37.783 60.35 27.264 74.937 35.683 C 81.706 39.589 85.875 46.808 85.875 54.627 C 85.875 71.464 67.644 81.989 53.062 73.571 C 46.294 69.664 42.125 62.439 42.125 54.627"
    clip-rule="evenodd" style="stroke-width: 1;"></path>
</svg>