<svg fill="none" viewBox="-4 -4 24 24" role="presentation"
  class="_1reo15vq _18m915vq _syaz1r31 _lcxvglyw _s7n4yfq0 _vc881r31 _1bsb1ejb _4t3i1ejb">
  <path fill="currentcolor"
    d="M10 12.5H6V14a.5.5 0 0 0 .5.5h3a.5.5 0 0 0 .5-.5zm-2-11c-3.022 0-4.935 3.243-3.473 5.888L5.535 9.21c.303.548.463 1.164.465 1.79h4a3.7 3.7 0 0 1 .465-1.79l1.008-1.822C12.935 4.743 11.022 1.5 8 1.5M11.5 14a2 2 0 0 1-2 2h-3a2 2 0 0 1-2-2v-2.988a2.2 2.2 0 0 0-.277-1.075L3.215 8.114C1.2 4.47 3.835 0 8 0c4.164 0 6.8 4.47 4.785 8.114l-1.008 1.823a2.2 2.2 0 0 0-.277 1.075z"></path>
</svg>