<svg width="128" height="128" viewBox="0 0 128 128" fill="none" xmlns="http://www.w3.org/2000/svg">
<path fill-rule="evenodd" clip-rule="evenodd" d="M64 30.0876C58.4771 30.0876 54 34.6039 54 40.1752H74C74 34.6039 69.5229 30.0876 64 30.0876ZM84 40.3146V40.1752C84 29.0328 75.0457 20 64 20C52.9543 20 44 29.0328 44 40.1752V40.3146C42.0635 40.6423 40.3156 41.5316 38.9267 42.8106L33.0154 38.5514L26.9024 24.6766L17.7643 28.7735L24.0619 43.0672C24.666 44.4384 25.6229 45.6214 26.8333 46.4935L35.6667 52.8583V60.3503H14V70.4379H35.6667V78.1631L28.0014 84.6069C27.1182 85.3494 26.3969 86.268 25.8827 87.305L17.8612 103.489L26.8055 108L34.6711 92.1309L37.7416 89.5498C41.9788 100.151 52.2551 107.426 64.0097 107.426H65.6667C77.1272 107.426 86.8993 100.133 90.6707 89.8962L93.3287 92.1309L101.194 108L110.139 103.489L102.117 87.305C101.603 86.268 100.882 85.3494 99.9987 84.6069L92.3333 78.1631V70.4379H114V60.3503H92.3333V52.8583L101.167 46.4935C102.377 45.6214 103.334 44.4384 103.938 43.0672L110.235 28.7735L101.097 24.6766L94.9847 38.5514L89.0733 42.8106C87.6847 41.5316 85.9367 40.6423 84 40.3146ZM82.3333 80.5255V50.2627H45.6667V80.1398L45.8992 81.6647C47.2745 90.6816 54.9657 97.3381 64.0097 97.3381H65.6667C74.8714 97.3381 84 89.8108 84 80.5255H82.3333Z" fill="#5A5A5A"/>
</svg>
