<svg fill="none" viewBox="-4 -4 24 24" role="presentation"
  class="_1reo15vq _18m915vq _syaz1r31 _lcxvglyw _s7n4yfq0 _vc881r31 _1bsb1ejb _4t3i1ejb">
  <path fill="currentcolor" fill-rule="evenodd"
    d="M0 4a2 2 0 0 1 2-2h9a2 2 0 0 1 2 2v1a2 2 0 0 1-2 2H2a2 2 0 0 1-2-2zm2-.5a.5.5 0 0 0-.5.5v1a.5.5 0 0 0 .5.5h9a.5.5 0 0 0 .5-.5V4a.5.5 0 0 0-.5-.5zM3 11a2 2 0 0 1 2-2h9a2 2 0 0 1 2 2v1a2 2 0 0 1-2 2H5a2 2 0 0 1-2-2zm2-.5a.5.5 0 0 0-.5.5v1a.5.5 0 0 0 .5.5h9a.5.5 0 0 0 .5-.5v-1a.5.5 0 0 0-.5-.5z"
    clip-rule="evenodd"></path>
</svg>