<svg width="16" height="16" viewBox="0 0 16 16" fill="none" xmlns="http://www.w3.org/2000/svg"
  role="img">
  <path data-testid="story-icon-path" clip-rule="evenodd"
    d="M4.98291 2.5C4.70677 2.5 4.48291 2.72386 4.48291 3V12.8059L8.00015 10.3332L11.5179 12.806V3C11.5179 2.72386 11.294 2.5 11.0179 2.5H4.98291ZM2.98291 3C2.98291 1.89543 3.87834 1 4.98291 1H11.0179C12.1225 1 13.0179 1.89543 13.0179 3V14.25C13.0179 14.5299 12.862 14.7866 12.6136 14.9156C12.3652 15.0446 12.0656 15.0236 11.8366 14.8626L8.00015 12.1658L4.1642 14.8626C3.9352 15.0236 3.6356 15.0446 3.38718 14.9156C3.13875 14.7866 2.98291 14.5299 2.98291 14.25V3Z"
    fill="#6A9A23" fill-rule="evenodd"></path>
</svg>